<?xml version="1.0" standalone="no"?>
<!DOCTYPE svg PUBLIC "-//W3C//DTD SVG 20010904//EN"
 "http://www.w3.org/TR/2001/REC-SVG-20010904/DTD/svg10.dtd">
<svg version="1.0" xmlns="http://www.w3.org/2000/svg"
 width="113.000000pt" height="110.000000pt" viewBox="0 0 113.000000 110.000000"
 preserveAspectRatio="xMidYMid meet" fill="none">
<style>
    /* Default styles (for light mode) */
    path, circle, rect {
        fill: #000000; /* black */
    }

    /* Styles for dark mode */
    @media (prefers-color-scheme: dark) {
        path, circle, rect {
            fill: #ffffff; /* white */
        }
    }
</style>
<g transform="translate(0.000000,110.000000) scale(0.100000,-0.100000)"
stroke="none">
<path d="M545 1081 c9 -8 95 -9 95 0 0 4 -23 7 -51 7 -27 0 -47 -3 -44 -7z"/>
<path d="M488 1073 c7 -3 16 -2 19 1 4 3 -2 6 -13 5 -11 0 -14 -3 -6 -6z"/>
<path d="M655 1070 c3 -5 13 -10 21 -10 8 0 12 5 9 10 -3 6 -13 10 -21 10 -8
0 -12 -4 -9 -10z"/>
<path d="M700 1066 c0 -2 9 -6 20 -9 11 -3 18 -1 14 4 -5 9 -34 13 -34 5z"/>
<path d="M628 1042 c-16 -2 -28 -8 -28 -13 0 -5 11 -7 25 -5 13 3 27 0 30 -5
9 -13 75 -11 75 3 0 6 -3 8 -7 5 -3 -4 -12 -2 -20 4 -10 9 -17 8 -30 -2 -10
-8 -14 -9 -10 -2 9 15 -1 20 -35 15z"/>
<path d="M752 1034 c-10 -11 -11 -18 -2 -29 6 -7 10 -38 8 -72 -3 -55 -4 -58
-27 -55 -19 3 -22 0 -17 -13 3 -9 6 -20 6 -23 0 -4 5 0 10 8 19 28 30 -11 30
-107 0 -104 6 -98 -87 -93 -40 2 -43 0 -43 -24 0 -25 1 -26 63 -25 34 1 56 4
50 6 -7 3 -13 12 -13 21 0 14 2 14 9 3 7 -11 9 -11 14 0 3 8 6 -13 6 -46 0
-46 -2 -56 -10 -42 -14 23 -27 13 -22 -16 3 -16 -1 -26 -11 -30 -13 -5 -15 -2
-10 18 4 15 2 25 -5 25 -12 0 -15 -12 -11 -45 3 -27 7 -30 25 -15 10 8 15 9
15 2 0 -6 7 -9 15 -6 12 5 15 -2 15 -31 0 -28 -5 -38 -19 -42 -12 -3 -17 -11
-14 -19 3 -8 0 -14 -6 -14 -6 0 -11 12 -11 26 0 21 -3 24 -14 15 -7 -6 -11
-22 -8 -36 4 -21 9 -25 31 -22 14 3 34 0 44 -5 11 -5 17 -5 17 2 0 5 12 10 26
10 14 0 23 3 21 8 -3 4 2 14 11 21 14 13 15 12 9 -8 -4 -18 -2 -22 16 -19 14
2 22 10 22 23 0 16 -7 20 -33 21 -18 1 -35 -3 -38 -8 -11 -18 -34 15 -34 48 0
30 3 33 28 31 23 -2 27 2 28 26 l1 27 -5 -27 -5 -28 -7 25 c-4 15 -13 24 -23
24 -13 -1 -17 7 -17 37 0 35 3 39 25 39 14 0 25 6 25 13 0 8 4 7 10 -3 8 -12
10 -10 11 10 1 22 2 23 7 5 8 -24 42 -33 42 -10 0 8 5 15 11 15 6 0 9 -7 5
-15 -4 -12 3 -15 34 -15 35 0 40 3 40 23 0 12 -5 29 -11 37 -8 12 -10 9 -6
-13 2 -15 0 -30 -4 -33 -5 -3 -9 3 -9 14 0 15 -8 19 -37 20 -20 1 -41 -4 -45
-11 -6 -9 -8 -9 -8 1 0 6 -7 12 -15 12 -8 0 -15 -5 -15 -12 0 -9 -3 -9 -12 0
-7 7 -20 12 -30 12 -16 0 -18 10 -18 88 0 48 5 94 10 102 8 12 10 12 10 1 0
-8 7 -11 19 -8 10 2 26 0 35 -5 12 -7 16 -5 16 11 0 27 -10 51 -22 51 -5 0 -6
-4 -3 -10 4 -6 -5 -10 -19 -10 -14 0 -29 0 -33 0 -4 0 -9 13 -11 30 -2 16 2
30 7 30 6 0 11 7 11 15 0 8 -4 15 -10 15 -5 0 -10 20 -10 45 0 47 -6 54 -28
29z m-95 -416 c-3 -8 -6 -5 -6 6 -1 11 2 17 5 13 3 -3 4 -12 1 -19z m30 0 c-3
-8 -6 -5 -6 6 -1 11 2 17 5 13 3 -3 4 -12 1 -19z m100 0 c-3 -8 -6 -5 -6 6 -1
11 2 17 5 13 3 -3 4 -12 1 -19z m80 -240 c-3 -8 -6 -5 -6 6 -1 11 2 17 5 13 3
-3 4 -12 1 -19z"/>
<path d="M460 1026 c0 -9 5 -16 10 -16 6 0 10 4 10 8 0 5 25 7 55 5 30 -2 55
0 55 5 0 4 -29 9 -65 10 -54 3 -65 1 -65 -12z"/>
<path d="M356 1021 c-4 -7 -5 -15 -2 -18 9 -9 19 4 14 18 -4 11 -6 11 -12 0z"/>
<path d="M385 1019 c-4 -6 -4 -13 -1 -16 3 -4 6 -1 6 6 0 7 4 10 9 6 5 -3 12
-1 16 5 3 5 -1 10 -9 10 -8 0 -18 -5 -21 -11z"/>
<path d="M294 995 c-4 -8 -10 -15 -16 -15 -5 0 -6 5 -2 12 5 7 3 8 -7 2 -8 -4
-19 -9 -26 -10 -13 -2 -61 -34 -51 -34 3 0 21 6 39 14 19 7 39 11 46 9 6 -2
17 5 23 16 6 12 8 21 5 21 -3 0 -8 -7 -11 -15z"/>
<path d="M825 1000 c4 -6 11 -8 16 -5 5 4 9 1 9 -5 0 -6 5 -8 11 -4 8 4 7 9
-2 15 -19 12 -42 11 -34 -1z"/>
<path d="M561 981 c-1 -8 -8 -11 -21 -8 -15 4 -20 0 -20 -14 0 -21 16 -26 23
-6 4 9 8 8 16 -3 15 -22 26 -4 13 22 -6 13 -11 17 -11 9z"/>
<path d="M587 984 c-2 -3 -3 -14 0 -25 4 -16 13 -19 49 -17 24 0 44 5 44 10 0
4 5 8 11 8 5 0 8 -4 5 -9 -7 -10 19 -23 28 -14 3 4 6 13 6 20 0 11 -11 14 -40
12 -21 -2 -42 0 -46 4 -4 4 -16 -1 -27 -10 -19 -17 -20 -17 -14 -1 6 17 -5 33
-16 22z"/>
<path d="M347 973 c-4 -3 -7 -16 -7 -27 0 -17 2 -18 10 -6 7 11 10 11 10 2 0
-20 54 -11 58 10 3 15 -2 17 -30 12 -25 -4 -29 -3 -18 5 13 9 13 11 -1 11 -9
0 -19 -3 -22 -7z"/>
<path d="M473 972 c-16 -5 -20 -11 -14 -20 11 -19 45 -11 49 11 4 18 0 19 -35
9z"/>
<path d="M289 953 c-1 -4 -1 -10 -1 -13 0 -3 -17 -5 -38 -5 -29 0 -36 -3 -29
-11 8 -9 5 -11 -9 -7 -21 5 -62 -12 -62 -26 0 -5 8 -8 18 -6 9 2 21 4 25 4 5
1 6 5 3 9 -3 5 3 8 12 8 50 -1 122 18 122 32 0 12 -2 12 -17 1 -10 -8 -14 -9
-10 -2 4 6 3 14 -3 18 -5 3 -11 3 -11 -2z"/>
<path d="M812 942 c2 -11 13 -17 33 -17 17 0 32 -3 36 -7 3 -4 21 -9 40 -12
18 -2 34 -8 34 -14 0 -6 3 -14 8 -18 4 -4 7 2 7 13 0 22 -25 37 -43 26 -6 -4
-8 0 -4 10 6 15 -3 22 -26 18 -4 -1 -25 3 -48 8 -35 8 -40 7 -37 -7z"/>
<path d="M382 870 c-1 -32 11 -46 31 -33 6 4 23 6 37 5 20 -2 22 -1 10 7 -10
7 -11 11 -2 11 6 0 12 5 12 11 0 7 -10 9 -24 5 -16 -4 -30 0 -40 9 -20 21 -23
19 -24 -15z m25 -22 c-3 -8 -6 -5 -6 6 -1 11 2 17 5 13 3 -3 4 -12 1 -19z"/>
<path d="M115 870 c-3 -5 -1 -10 4 -10 6 0 11 5 11 10 0 6 -2 10 -4 10 -3 0
-8 -4 -11 -10z"/>
<path d="M266 864 c-12 -32 -7 -43 21 -40 28 3 53 29 40 43 -4 4 -17 1 -29 -6
-11 -7 -17 -8 -14 -2 4 5 2 12 -3 15 -5 3 -12 -1 -15 -10z"/>
<path d="M524 860 c0 -11 6 -20 12 -20 6 0 14 9 17 20 4 14 0 20 -12 20 -10 0
-17 -8 -17 -20z"/>
<path d="M564 869 c-7 -11 4 -29 17 -29 6 0 7 5 4 10 -3 6 1 10 9 10 9 0 13
-6 10 -14 -3 -8 -1 -17 5 -21 6 -3 11 -1 11 5 0 6 5 8 10 5 6 -4 7 -12 3 -18
-4 -8 -1 -8 9 1 9 7 15 20 13 30 -1 9 0 11 2 5 5 -14 53 -18 53 -5 -1 24 -20
32 -78 31 -35 -1 -65 -6 -68 -10z"/>
<path d="M195 840 c-3 -5 -12 -7 -20 -3 -9 3 -22 0 -30 -7 -8 -7 -15 -9 -15
-6 0 4 -9 2 -20 -4 -27 -14 -27 -40 1 -33 14 4 18 11 14 22 -5 13 -4 14 6 4
18 -18 32 -16 25 3 -5 13 -3 14 6 7 21 -15 52 -10 56 10 4 18 -13 24 -23 7z"/>
<path d="M916 836 c8 -22 38 -31 30 -9 -5 15 -3 14 10 -2 l16 -20 -4 20 c-2
13 -12 21 -31 23 -20 3 -26 0 -21 -12z"/>
<path d="M1003 816 c0 -8 6 -12 15 -8 9 3 13 1 9 -5 -4 -6 0 -13 8 -17 20 -7
19 8 -1 28 -19 20 -31 20 -31 2z"/>
<path d="M359 793 c-1 -4 0 -20 1 -35 1 -21 -3 -28 -17 -28 -14 0 -15 2 -4 9
7 5 11 13 8 18 -9 14 -63 9 -83 -8 -14 -11 -16 -11 -10 0 6 9 4 12 -5 9 -8 -3
-14 -13 -14 -23 0 -10 6 -20 14 -23 9 -3 11 0 5 9 -6 11 -5 12 7 3 8 -6 22
-10 32 -9 12 2 17 -3 17 -20 0 -13 -4 -27 -10 -30 -5 -3 -10 -19 -10 -35 0
-16 5 -32 10 -35 6 -3 9 -32 9 -63 -1 -31 -4 -47 -6 -34 -2 12 -11 22 -19 22
-8 0 -14 7 -14 15 0 8 -3 15 -8 15 -4 0 -6 -18 -4 -40 4 -34 7 -40 28 -40 20
0 24 -5 24 -30 0 -23 -6 -33 -22 -39 -14 -5 -28 -5 -35 1 -7 6 -14 5 -18 -2
-5 -8 -11 -7 -23 2 -13 11 -16 11 -20 -1 -3 -10 -9 -7 -18 10 l-13 24 -1 -25
c-1 -14 -4 -19 -7 -12 -8 20 -23 14 -23 -9 0 -16 5 -20 20 -16 11 3 20 2 20
-2 0 -4 21 -8 46 -10 30 -1 44 2 39 8 -3 6 -1 11 4 11 6 0 11 -4 11 -10 0 -5
7 -10 15 -10 11 0 15 -11 15 -36 0 -36 0 -37 -35 -31 -29 5 -35 3 -35 -13 0
-24 27 -34 33 -12 4 16 5 15 6 0 0 -10 8 -18 16 -18 8 0 15 -7 15 -15 0 -8 -7
-15 -16 -15 -12 0 -14 -3 -6 -12 6 -7 13 -29 17 -49 6 -33 5 -36 -17 -33 -13
1 -27 3 -31 3 -5 1 -5 6 -2 11 4 6 3 10 -2 9 -4 -1 -10 0 -13 1 -3 1 -13 3
-23 5 -32 6 1 -23 41 -36 43 -13 64 -29 39 -29 -15 0 -15 -2 3 -20 24 -24 30
-25 30 -5 0 14 16 20 52 17 11 -1 15 3 12 13 -4 8 -18 15 -33 15 -21 0 -23 -2
-11 -11 13 -9 13 -10 0 -6 -20 5 -22 163 -2 159 17 -3 15 27 -3 34 -17 7 -21
59 -5 69 12 7 14 45 3 45 -5 0 -7 45 -5 100 3 91 5 100 23 100 25 0 24 25 -1
57 -32 41 -27 63 15 63 29 0 35 4 35 20 0 11 -7 23 -15 26 -8 4 -13 10 -10 14
3 5 1 11 -5 15 -5 3 -10 3 -11 -2z m-82 -305 c-3 -8 -6 -5 -6 6 -1 11 2 17 5
13 3 -3 4 -12 1 -19z"/>
<path d="M410 790 c0 -5 5 -10 10 -10 6 0 10 5 10 10 0 6 -4 10 -10 10 -5 0
-10 -4 -10 -10z"/>
<path d="M690 785 c7 -8 10 -25 6 -38 -4 -18 -1 -23 14 -23 22 0 24 4 11 25
-6 9 -6 22 0 33 8 15 6 18 -17 18 -22 0 -25 -2 -14 -15z"/>
<path d="M440 751 c0 -20 5 -27 20 -27 14 0 20 7 20 22 0 13 -8 24 -20 27 -16
4 -20 0 -20 -22z"/>
<path d="M501 767 c-6 -6 -11 -24 -11 -39 0 -21 5 -28 19 -28 24 0 38 19 21
30 -8 5 -7 9 4 13 9 4 16 10 16 16 0 14 -37 20 -49 8z"/>
<path d="M208 758 c-6 -16 2 -48 11 -48 8 0 7 47 -1 56 -3 3 -8 -1 -10 -8z"/>
<path d="M410 745 c0 -14 5 -25 10 -25 6 0 10 11 10 25 0 14 -4 25 -10 25 -5
0 -10 -11 -10 -25z"/>
<path d="M793 745 c0 -29 13 -34 20 -7 4 15 5 15 6 -2 1 -12 6 -16 16 -13 8 4
17 2 20 -4 4 -5 11 -6 17 -3 6 4 5 10 -3 15 -11 7 -10 9 3 9 9 0 19 -6 21 -12
4 -10 8 -10 15 0 7 11 10 11 15 -2 4 -9 12 -16 19 -15 10 0 10 2 1 6 -7 2 -13
12 -13 21 0 15 2 15 10 2 5 -8 10 -10 11 -5 0 6 4 1 8 -9 7 -19 8 -19 13 2 5
19 1 22 -37 28 -24 3 -48 3 -53 0 -6 -3 -13 0 -16 6 -3 10 -9 8 -19 -5 -13
-15 -15 -16 -21 -2 -9 25 -33 18 -33 -10z"/>
<path d="M102 753 c-6 -2 -9 -10 -5 -16 4 -6 0 -8 -10 -4 -13 5 -16 1 -15 -18
1 -14 6 -25 11 -25 5 0 7 7 3 15 -3 8 -1 15 4 15 6 0 10 -4 10 -10 0 -5 4 -10
9 -10 4 0 7 11 6 25 -2 14 1 23 6 19 5 -3 9 -14 9 -25 0 -21 15 -25 26 -7 5 7
3 8 -7 3 -12 -8 -12 -6 0 8 12 15 11 17 -3 17 -9 0 -16 5 -16 10 0 11 -7 12
-28 3z"/>
<path d="M550 730 c0 -5 5 -10 10 -10 6 0 10 5 10 10 0 6 -4 10 -10 10 -5 0
-10 -4 -10 -10z"/>
<path d="M1020 726 c0 -19 17 -30 25 -17 3 6 12 8 20 4 8 -3 15 -1 15 5 0 5
-10 12 -22 16 -33 9 -38 8 -38 -8z"/>
<path d="M42 708 c-17 -17 -15 -28 6 -27 11 0 12 2 4 6 -10 4 -10 8 -1 19 14
17 8 19 -9 2z"/>
<path d="M380 670 c0 -5 5 -10 10 -10 6 0 10 5 10 10 0 6 -4 10 -10 10 -5 0
-10 -4 -10 -10z"/>
<path d="M515 670 c4 -6 11 -8 16 -5 14 9 11 15 -7 15 -8 0 -12 -5 -9 -10z"/>
<path d="M910 670 c0 -5 5 -10 11 -10 5 0 7 5 4 10 -3 6 -8 10 -11 10 -2 0 -4
-4 -4 -10z"/>
<path d="M224 655 c-4 -8 -14 -15 -24 -15 -21 0 -32 -21 -20 -40 7 -11 11 -11
24 -1 12 10 16 10 16 2 0 -7 4 -10 9 -7 4 3 7 17 6 31 -2 14 1 25 6 25 5 0 9
5 9 10 0 16 -20 12 -26 -5z"/>
<path d="M1031 635 c-1 -34 2 -41 19 -42 11 -1 20 2 20 8 0 5 7 9 15 9 25 0
17 17 -10 22 -18 4 -25 1 -26 -11 -1 -9 -5 0 -9 19 l-7 35 -2 -40z"/>
<path d="M545 633 c2 -13 -1 -23 -6 -23 -5 0 -9 9 -9 20 0 11 -4 20 -10 20 -5
0 -10 -11 -10 -25 0 -24 3 -25 56 -25 54 0 55 1 52 27 -3 23 -8 27 -40 28 -34
0 -37 -2 -33 -22z m52 -15 c-3 -8 -6 -5 -6 6 -1 11 2 17 5 13 3 -3 4 -12 1
-19z"/>
<path d="M380 624 c0 -22 4 -25 32 -22 24 2 32 8 33 26 1 15 -4 22 -16 22 -10
0 -19 -9 -22 -22 l-4 -23 -2 23 c-2 31 -21 28 -21 -4z"/>
<path d="M20 623 c0 -13 5 -23 11 -23 5 0 7 -4 4 -10 -10 -17 17 -11 37 7 11
10 18 13 16 8 -3 -11 4 -15 27 -15 9 0 15 10 15 26 0 16 -4 23 -11 18 -18 -11
-83 -11 -91 1 -4 5 -8 0 -8 -12z"/>
<path d="M545 550 c-3 -5 -1 -10 4 -10 6 0 11 5 11 10 0 6 -2 10 -4 10 -3 0
-8 -4 -11 -10z"/>
<path d="M31 533 c-1 -17 5 -23 20 -23 11 0 17 5 14 10 -4 6 -10 8 -15 5 -5
-3 -11 3 -13 12 -4 14 -5 13 -6 -4z"/>
<path d="M148 540 c-2 -6 -13 -12 -26 -13 -15 -1 -21 -6 -17 -15 3 -7 5 -17 5
-21 0 -4 7 -8 15 -8 8 0 15 4 15 9 0 16 20 8 21 -9 1 -12 4 -9 8 7 8 28 3 60
-9 60 -5 0 -10 -5 -12 -10z"/>
<path d="M1078 533 c-9 -2 -16 -13 -15 -24 1 -20 6 -23 22 -11 9 6 21 44 13
41 -2 -1 -11 -3 -20 -6z"/>
<path d="M224 516 c-3 -9 -4 -23 0 -31 6 -17 26 -20 26 -4 0 5 -4 7 -10 4 -5
-3 -10 1 -10 10 0 9 5 13 10 10 6 -3 10 -2 10 4 0 18 -20 23 -26 7z"/>
<path d="M361 508 c-12 -31 -6 -38 34 -36 25 1 35 6 35 17 1 13 3 13 15 -3 7
-10 20 -16 27 -13 10 4 10 6 1 6 -7 1 -13 6 -13 11 0 6 3 9 8 8 4 -2 9 2 12 7
3 6 -13 11 -37 13 -35 3 -42 0 -37 -12 3 -9 1 -16 -5 -16 -6 0 -11 6 -11 14 0
26 -20 28 -29 4z"/>
<path d="M852 500 c0 -17 4 -28 9 -25 5 4 9 13 9 21 0 8 5 14 11 14 5 0 7 5 4
10 -13 21 -32 9 -33 -20z"/>
<path d="M937 523 c-4 -3 -7 -15 -7 -25 0 -13 7 -18 26 -18 17 0 23 4 18 13
-5 9 -4 9 6 0 10 -9 16 -8 27 3 8 8 20 14 26 14 7 0 6 -4 -3 -10 -13 -8 -12
-10 3 -10 10 0 17 8 17 20 0 17 -6 20 -40 18 -25 -1 -37 -5 -33 -12 3 -6 0 -5
-8 2 -15 14 -23 15 -32 5z"/>
<path d="M183 505 c-3 -9 -3 -19 1 -22 3 -4 6 2 7 13 1 15 3 13 9 -6 l8 -25 1
28 c1 29 -16 37 -26 12z"/>
<path d="M538 495 c2 -14 8 -25 13 -25 5 0 9 11 9 25 0 14 -6 25 -14 25 -9 0
-12 -8 -8 -25z"/>
<path d="M573 496 c0 -18 5 -23 23 -23 19 0 24 5 24 23 0 19 -5 24 -24 24 -18
0 -23 -5 -23 -24z m32 4 c3 -5 1 -10 -4 -10 -6 0 -11 5 -11 10 0 6 2 10 4 10
3 0 8 -4 11 -10z"/>
<path d="M67 443 c-4 -3 -7 -13 -7 -22 1 -13 3 -13 11 2 11 19 8 33 -4 20z"/>
<path d="M1000 428 c0 -25 -4 -28 -37 -29 l-38 -2 45 -7 c59 -9 79 -3 73 21
-3 11 -8 17 -11 15 -3 -3 -11 2 -18 12 -12 15 -13 14 -14 -10z"/>
<path d="M120 432 c0 -7 -7 -12 -15 -12 -8 0 -19 -9 -25 -20 -6 -12 -7 -20 -1
-20 5 0 17 -7 25 -16 13 -12 16 -12 16 -2 0 8 -6 20 -12 27 -9 9 -9 12 -1 7
12 -7 30 31 19 41 -3 4 -6 1 -6 -5z"/>
<path d="M1054 429 c-3 -6 -2 -15 4 -21 6 -6 11 -2 15 11 5 22 -7 29 -19 10z"/>
<path d="M441 413 c-5 -10 -20 -18 -32 -18 -28 0 -38 -32 -13 -42 11 -4 22 1
30 12 13 17 14 17 14 2 0 -9 4 -17 8 -17 5 0 8 13 7 30 -1 16 2 27 7 24 4 -3
8 2 8 10 0 21 -17 20 -29 -1z m-34 -45 c-3 -8 -6 -5 -6 6 -1 11 2 17 5 13 3
-3 4 -12 1 -19z"/>
<path d="M899 422 c-4 -38 -3 -46 9 -50 9 -3 11 4 8 23 -6 30 -15 45 -17 27z"/>
<path d="M517 406 c-11 -28 -8 -53 7 -59 17 -7 26 1 26 22 0 14 -2 14 -11 1
-9 -12 -10 -12 -7 -1 7 24 28 25 28 2 0 -12 5 -21 10 -21 6 0 10 8 10 18 1 16
1 16 11 0 7 -13 22 -18 50 -18 36 0 40 2 37 23 -2 17 -10 22 -36 24 -19 1 -30
-3 -26 -9 4 -6 -2 -6 -14 1 -11 6 -32 11 -46 11 -13 0 -26 5 -28 12 -3 7 -7 5
-11 -6z m123 -36 c0 -5 -8 -10 -17 -10 -15 0 -16 2 -3 10 19 12 20 12 20 0z"/>
<path d="M51 344 c0 -11 3 -14 6 -6 3 7 2 16 -1 19 -3 4 -6 -2 -5 -13z"/>
<path d="M70 325 c0 -9 6 -12 15 -9 8 4 15 7 15 9 0 2 -7 5 -15 9 -9 3 -15 0
-15 -9z"/>
<path d="M1008 326 c-29 -7 -38 -14 -37 -30 0 -12 3 -16 5 -9 3 7 12 9 20 6 8
-3 14 0 14 7 0 6 5 8 10 5 6 -3 10 -2 10 4 0 6 7 8 15 5 8 -4 15 -1 15 4 0 17
-12 19 -52 8z"/>
<path d="M879 324 c-1 -5 0 -17 1 -28 1 -10 -4 -23 -12 -27 -10 -7 -9 -9 5 -9
9 0 17 7 17 16 0 13 3 14 14 5 11 -9 15 -6 20 15 7 27 -3 50 -11 26 -4 -10 -8
-10 -19 -1 -8 6 -15 8 -15 3z"/>
<path d="M91 294 c0 -11 3 -14 6 -6 3 7 2 16 -1 19 -3 4 -6 -2 -5 -13z"/>
<path d="M140 291 c13 -26 53 -29 48 -3 -2 10 -14 18 -31 20 -26 3 -28 2 -17
-17z"/>
<path d="M457 303 c-4 -3 -7 -16 -8 -27 0 -12 -3 -15 -6 -8 -8 20 -45 15 -41
-5 5 -26 68 -28 68 -3 0 10 5 22 10 25 6 4 8 11 5 16 -7 11 -19 12 -28 2z"/>
<path d="M570 286 c0 -14 -4 -26 -9 -26 -5 0 -8 6 -7 13 0 6 -3 13 -9 15 -5 1
-11 -9 -13 -23 -3 -22 0 -25 27 -25 20 0 31 6 34 18 4 14 5 14 6 1 1 -11 11
-16 33 -17 23 -1 28 2 18 8 -13 8 -12 10 3 10 9 0 17 -4 17 -10 0 -5 16 -10
36 -10 31 0 35 3 32 21 -3 19 -10 22 -52 22 -26 0 -51 -5 -55 -12 -5 -8 -16
-3 -34 15 l-27 27 0 -27z"/>
<path d="M933 295 c-3 -9 -3 -18 0 -21 9 -9 27 6 27 22 0 19 -19 18 -27 -1z"/>
<path d="M750 249 c0 -5 5 -7 10 -4 6 3 10 8 10 11 0 2 -4 4 -10 4 -5 0 -10
-5 -10 -11z"/>
<path d="M147 244 c-12 -13 -8 -24 11 -24 13 0 14 -2 4 -9 -11 -6 -9 -9 6 -13
11 -3 25 -1 32 6 8 8 10 7 5 -6 -5 -12 -2 -18 8 -18 9 0 22 -3 31 -6 9 -3 16
-1 16 6 0 6 -5 8 -12 4 -8 -5 -9 -2 -5 9 7 18 6 19 -35 21 -15 1 -33 10 -41
19 -7 10 -16 15 -20 11z"/>
<path d="M990 240 c-8 -5 -11 -12 -7 -16 4 -4 13 -2 19 4 15 15 7 24 -12 12z"/>
<path d="M910 221 c0 -13 -6 -18 -17 -16 -10 1 -26 -5 -36 -13 -15 -13 -17
-14 -12 -1 4 12 -3 15 -37 15 -23 0 -37 -1 -30 -4 7 -2 12 -13 12 -24 0 -11 5
-18 13 -15 6 2 11 10 10 16 -2 6 1 11 7 11 6 0 10 -6 10 -14 0 -9 7 -12 20 -9
11 3 20 9 20 12 0 4 10 7 22 7 15 -1 23 7 29 27 4 15 3 27 -2 27 -5 0 -9 -9
-9 -19z"/>
<path d="M952 218 c2 -6 12 -12 22 -14 14 -2 15 0 5 12 -14 17 -32 19 -27 2z"/>
<path d="M348 181 c3 -22 9 -29 23 -28 10 1 19 5 19 10 0 5 7 1 16 -7 18 -19
36 -12 27 9 -3 8 -16 15 -28 15 -13 0 -30 7 -39 15 -21 21 -23 19 -18 -14z"/>
<path d="M738 185 c-2 -3 -43 -5 -89 -6 l-85 -1 4 -29 c2 -16 9 -29 14 -29 5
0 6 5 3 10 -3 6 0 10 7 10 10 0 9 3 -2 11 -13 9 -12 10 3 5 9 -3 24 -9 32 -12
9 -4 18 1 22 12 6 16 7 16 14 -2 7 -17 8 -17 8 -1 1 18 21 25 21 7 0 -5 16
-10 35 -10 28 0 35 4 35 20 0 19 -11 26 -22 15z"/>
<path d="M771 174 c0 -11 3 -14 6 -6 3 7 2 16 -1 19 -3 4 -6 -2 -5 -13z"/>
<path d="M451 159 c9 -17 13 -19 20 -8 14 22 11 29 -11 29 -18 0 -19 -3 -9
-21z"/>
<path d="M486 165 c-3 -9 1 -18 10 -22 19 -7 39 11 30 26 -10 16 -33 13 -40
-4z"/>
<path d="M935 160 c-3 -6 1 -7 9 -4 18 7 21 14 7 14 -6 0 -13 -4 -16 -10z"/>
<path d="M887 139 c-10 -6 -30 -8 -45 -5 -15 3 -21 3 -14 0 6 -3 12 -10 12
-15 0 -6 -4 -7 -10 -4 -5 3 -10 1 -10 -4 0 -13 10 -14 30 -1 9 5 19 5 26 0 7
-7 15 -2 22 15 6 14 11 25 9 25 -1 0 -10 -5 -20 -11z"/>
<path d="M740 120 c0 -5 -5 -9 -11 -7 -6 1 -13 -6 -14 -15 -2 -12 3 -18 16
-18 14 0 19 7 19 25 0 14 -2 25 -5 25 -3 0 -5 -4 -5 -10z"/>
<path d="M791 113 c-6 -10 -11 -12 -11 -5 0 17 -20 15 -20 -3 0 -20 39 -19 47
0 8 23 -4 29 -16 8z"/>
<path d="M506 97 c3 -8 -3 -13 -15 -13 -11 0 -18 3 -15 7 2 4 -12 7 -31 7 -35
0 -47 -11 -21 -21 7 -3 19 0 25 6 8 8 11 8 11 -1 0 -7 14 -12 34 -12 29 0 33
3 29 20 -3 11 -9 20 -14 20 -5 0 -6 -6 -3 -13z"/>
<path d="M651 93 c-6 -10 -11 -12 -11 -5 0 17 -30 15 -30 -3 0 -10 10 -15 29
-15 33 0 49 16 33 32 -7 7 -13 4 -21 -9z"/>
<path d="M530 92 c0 -4 5 -14 10 -22 9 -13 11 -13 20 0 14 21 12 26 -10 27
-11 1 -20 -1 -20 -5z"/>
<path d="M781 64 c-52 -16 -57 -20 -36 -28 9 -3 13 -2 10 4 -3 6 2 10 12 10
10 1 32 7 48 15 38 17 23 17 -34 -1z"/>
<path d="M369 52 c9 -7 10 -11 2 -15 -7 -4 -8 -5 0 -3 15 2 13 20 -3 24 -10 3
-10 2 1 -6z"/>
<path d="M405 40 c3 -5 10 -10 16 -10 5 0 9 5 9 10 0 6 -7 10 -16 10 -8 0 -12
-4 -9 -10z"/>
<path d="M685 40 c-19 -8 -19 -9 2 -9 12 -1 25 4 28 9 7 12 -2 12 -30 0z"/>
<path d="M483 26 c0 -8 6 -12 14 -9 7 3 13 9 13 14 0 5 -6 9 -13 9 -8 0 -14
-6 -14 -14z"/>
<path d="M545 30 c-4 -6 5 -10 20 -10 15 0 24 4 20 10 -8 13 -32 13 -40 0z"/>
<path d="M625 30 c-3 -5 1 -10 9 -10 8 0 18 5 21 10 3 6 -1 10 -9 10 -8 0 -18
-4 -21 -10z"/>
<path d="M538 3 c7 -3 16 -2 19 1 4 3 -2 6 -13 5 -11 0 -14 -3 -6 -6z"/>
</g>
</svg>
